<svg xmlns="http://www.w3.org/2000/svg" version="1.1" xmlns:xlink="http://www.w3.org/1999/xlink" viewBox="0 0 200 200" width="200" height="200"><metadata><rdf:RDF xmlns:rdf="http://www.w3.org/1999/02/22-rdf-syntax-ns#" xmlns:dc="http://purl.org/dc/elements/1.1/"><rdf:Description><dc:creator>RealFaviconGenerator</dc:creator><dc:source>https://realfavicongenerator.net</dc:source></rdf:Description></rdf:RDF></metadata><rect width="200" height="200" fill="url('#gradient')"></rect><defs><linearGradient id="gradient" gradientTransform="rotate(360 0.5 0.5)"><stop offset="0%" stop-color="#0ce8db"></stop><stop offset="100%" stop-color="#2e3007"></stop></linearGradient></defs><g><g fill="#343065" transform="matrix(3.098335854765507,0,0,3.098335854765507,25.948405683491487,122.03342501947631)" stroke="#4e85a5" stroke-width="0.2"><path d="M4.73-14.22L4.73 0L1.31 0L1.31-14.22L4.73-14.22ZM16.19 0L15.36-2.66L10.66-2.66L9.84 0L6.18 0L11.40-14.22L14.62-14.22L19.87 0L16.19 0ZM13.01-10.23L11.48-5.30L14.54-5.30L13.01-10.23ZM32.79-14.22L32.79 0L29.38 0L29.38-5.94L24.34-5.94L24.34 0L20.91 0L20.91-14.22L24.34-14.22L24.34-8.57L29.38-8.57L29.38-14.22L32.79-14.22ZM43.06-4.81L46.46-4.81Q46.40-3.33 45.66-2.19Q44.93-1.05 43.61-0.43Q42.29 0.20 40.59 0.20L40.59 0.20Q37.78 0.20 36.17-1.63Q34.56-3.46 34.56-6.79L34.56-6.79L34.56-7.49Q34.56-9.58 35.29-11.15Q36.02-12.71 37.38-13.57Q38.75-14.42 40.55-14.42L40.55-14.42Q43.13-14.42 44.71-13.06Q46.28-11.70 46.49-9.31L46.49-9.31L43.08-9.31Q43.04-10.61 42.42-11.17Q41.81-11.74 40.55-11.74L40.55-11.74Q39.27-11.74 38.67-10.78Q38.08-9.82 38.05-7.72L38.05-7.72L38.05-6.72Q38.05-4.44 38.62-3.47Q39.19-2.49 40.59-2.49L40.59-2.49Q41.77-2.49 42.39-3.05Q43.02-3.60 43.06-4.81L43.06-4.81Z"></path></g></g></svg>